<svg width="1319pt" height="420pt" viewBox="0 0 1319 420" xmlns="http://www.w3.org/2000/svg" xmlns:xlink="http://www.w3.org/1999/xlink">
<g id="graph0" class="graph" transform="scale(1 1) rotate(0) translate(4 416)">
<title>Sections</title>
<polygon fill="#ffffff" stroke="transparent" points="-4,4 -4,-416 1315,-416 1315,4 -4,4"></polygon>
<g id="clust1" class="cluster">
<title>cluster_1</title>
<polygon fill="none" stroke="#000000" points="8,-152 8,-348 701,-348 701,-152 8,-152"></polygon>
</g>
<g id="clust2" class="cluster">
<title>cluster_2</title>
<polygon fill="none" stroke="#000000" points="709,-8 709,-276 1303,-276 1303,-8 709,-8"></polygon>
</g>
<!-- vocab -->
<g id="node1" class="node">
<title>vocab</title>
<ellipse fill="none" stroke="#000000" cx="411" cy="-394" rx="56.1608" ry="18"></ellipse>
<text text-anchor="middle" x="411" y="-389.8" font-family="Times,serif" font-size="14.00" fill="#000000">Vocabulary</text>
</g>
<!-- set_01 -->
<g id="node3" class="node">
<title>set_01</title>
<ellipse fill="none" stroke="#000000" cx="468" cy="-322" rx="41.7327" ry="18"></ellipse>
<text text-anchor="middle" x="468" y="-317.8" font-family="Times,serif" font-size="14.00" fill="#000000">1.1 Sets</text>
</g>
<!-- vocab&#45;&gt;set_01 -->
<g id="edge1" class="edge">
<title>vocab-&gt;set_01</title>
<path fill="none" stroke="#000000" d="M425.0899,-376.2022C432.0254,-367.4416 440.506,-356.7293 448.091,-347.1482"></path>
<polygon fill="#000000" stroke="#000000" points="451.0018,-349.1102 454.4647,-339.0972 445.5135,-344.7652 451.0018,-349.1102"></polygon>
</g>
<!-- macros -->
<g id="node2" class="node">
<title>macros</title>
<ellipse fill="none" stroke="#000000" cx="525" cy="-394" rx="39.9857" ry="18"></ellipse>
<text text-anchor="middle" x="525" y="-389.8" font-family="Times,serif" font-size="14.00" fill="#000000">Macros</text>
</g>
<!-- macros&#45;&gt;set_01 -->
<g id="edge2" class="edge">
<title>macros-&gt;set_01</title>
<path fill="none" stroke="#000000" d="M511.4918,-376.937C504.496,-368.1003 495.8155,-357.1354 488.0538,-347.3311"></path>
<polygon fill="#000000" stroke="#000000" points="490.7584,-345.1087 481.8072,-339.4407 485.2701,-349.4536 490.7584,-345.1087"></polygon>
</g>
<!-- set_02 -->
<g id="node4" class="node">
<title>set_02</title>
<ellipse fill="none" stroke="#000000" cx="362" cy="-250" rx="77.6136" ry="18"></ellipse>
<text text-anchor="middle" x="362" y="-245.8" font-family="Times,serif" font-size="14.00" fill="#000000">1.2 The powerset</text>
</g>
<!-- set_01&#45;&gt;set_02 -->
<g id="edge3" class="edge">
<title>set_01-&gt;set_02</title>
<path fill="none" stroke="#000000" d="M445.5201,-306.7307C431.1627,-296.9784 412.2725,-284.1473 396.0894,-273.1551"></path>
<polygon fill="#000000" stroke="#000000" points="397.6621,-269.9923 387.4233,-267.2687 393.7289,-275.7828 397.6621,-269.9923"></polygon>
</g>
<!-- set_03 -->
<g id="node5" class="node">
<title>set_03</title>
<ellipse fill="none" stroke="#000000" cx="575" cy="-250" rx="117.5029" ry="18"></ellipse>
<text text-anchor="middle" x="575" y="-245.8" font-family="Times,serif" font-size="14.00" fill="#000000">1.3 The axiom of regularity</text>
</g>
<!-- set_01&#45;&gt;set_03 -->
<g id="edge4" class="edge">
<title>set_01-&gt;set_03</title>
<path fill="none" stroke="#000000" d="M490.6919,-306.7307C504.9778,-297.1178 523.7094,-284.5133 539.8872,-273.6273"></path>
<polygon fill="#000000" stroke="#000000" points="542.2251,-276.2728 548.5677,-267.7862 538.3172,-270.4652 542.2251,-276.2728"></polygon>
</g>
<!-- set_04 -->
<g id="node6" class="node">
<title>set_04</title>
<ellipse fill="none" stroke="#000000" cx="141" cy="-250" rx="125.022" ry="18"></ellipse>
<text text-anchor="middle" x="141" y="-245.8" font-family="Times,serif" font-size="14.00" fill="#000000">1.4 The symmetric difference</text>
</g>
<!-- set_01&#45;&gt;set_04 -->
<g id="edge5" class="edge">
<title>set_01-&gt;set_04</title>
<path fill="none" stroke="#000000" d="M430.8073,-313.8108C379.6971,-302.5572 286.4833,-282.033 219.5579,-267.2972"></path>
<polygon fill="#000000" stroke="#000000" points="219.9869,-263.8079 209.4682,-265.0756 218.4817,-270.6441 219.9869,-263.8079"></polygon>
</g>
<!-- fun_01 -->
<g id="node8" class="node">
<title>fun_01</title>
<ellipse fill="none" stroke="#000000" cx="844" cy="-250" rx="63.7277" ry="18"></ellipse>
<text text-anchor="middle" x="844" y="-245.8" font-family="Times,serif" font-size="14.00" fill="#000000">2.1 Functions</text>
</g>
<!-- set_01&#45;&gt;fun_01 -->
<g id="edge7" class="edge">
<title>set_01-&gt;fun_01</title>
<path fill="none" stroke="#000000" d="M506.1221,-314.7C570.7139,-302.3314 702.2868,-277.1366 780.8282,-262.0967"></path>
<polygon fill="#000000" stroke="#000000" points="781.9124,-265.4528 791.0757,-260.1344 780.5958,-258.5777 781.9124,-265.4528"></polygon>
</g>
<!-- set_05 -->
<g id="node7" class="node">
<title>set_05</title>
<ellipse fill="none" stroke="#000000" cx="362" cy="-178" rx="111.1615" ry="18"></ellipse>
<text text-anchor="middle" x="362" y="-173.8" font-family="Times,serif" font-size="14.00" fill="#000000">1.5 The Cartesian product</text>
</g>
<!-- set_02&#45;&gt;set_05 -->
<g id="edge6" class="edge">
<title>set_02-&gt;set_05</title>
<path fill="none" stroke="#000000" d="M362,-231.8314C362,-224.131 362,-214.9743 362,-206.4166"></path>
<polygon fill="#000000" stroke="#000000" points="365.5001,-206.4132 362,-196.4133 358.5001,-206.4133 365.5001,-206.4132"></polygon>
</g>
<!-- fun_05 -->
<g id="node12" class="node">
<title>fun_05</title>
<ellipse fill="none" stroke="#000000" cx="844" cy="-178" rx="126.8089" ry="18"></ellipse>
<text text-anchor="middle" x="844" y="-173.8" font-family="Times,serif" font-size="14.00" fill="#000000">2.5 Functions and set-systems</text>
</g>
<!-- set_02&#45;&gt;fun_05 -->
<g id="edge12" class="edge">
<title>set_02-&gt;fun_05</title>
<path fill="none" stroke="#000000" d="M418.7909,-237.521C428.5126,-235.5548 438.53,-233.6346 448,-232 476.304,-227.1144 633.6607,-205.9579 741.2865,-191.6224"></path>
<polygon fill="#000000" stroke="#000000" points="741.7648,-195.0897 751.2154,-190.3005 740.8409,-188.151 741.7648,-195.0897"></polygon>
</g>
<!-- fun_04 -->
<g id="node11" class="node">
<title>fun_04</title>
<ellipse fill="none" stroke="#000000" cx="896" cy="-106" rx="178.818" ry="18"></ellipse>
<text text-anchor="middle" x="896" y="-101.8" font-family="Times,serif" font-size="14.00" fill="#000000">2.4 Functions and the symmetric difference</text>
</g>
<!-- set_04&#45;&gt;fun_04 -->
<g id="edge10" class="edge">
<title>set_04-&gt;fun_04</title>
<path fill="none" stroke="#000000" d="M230.2698,-237.2857C299.2029,-227.1244 396.8748,-211.9794 482,-196 598.5313,-174.1251 732.4565,-144.1141 815.6668,-124.8864"></path>
<polygon fill="#000000" stroke="#000000" points="816.6055,-128.2618 825.5584,-122.5963 815.0266,-121.4421 816.6055,-128.2618"></polygon>
</g>
<!-- fun_02 -->
<g id="node9" class="node">
<title>fun_02</title>
<ellipse fill="none" stroke="#000000" cx="1093" cy="-178" rx="104.2014" ry="18"></ellipse>
<text text-anchor="middle" x="1093" y="-173.8" font-family="Times,serif" font-size="14.00" fill="#000000">2.2 Image and preimage</text>
</g>
<!-- fun_01&#45;&gt;fun_02 -->
<g id="edge8" class="edge">
<title>fun_01-&gt;fun_02</title>
<path fill="none" stroke="#000000" d="M888.5162,-237.1278C927.7912,-225.7712 985.482,-209.0895 1029.5809,-196.338"></path>
<polygon fill="#000000" stroke="#000000" points="1030.7053,-199.6564 1039.3395,-193.5163 1028.7608,-192.9319 1030.7053,-199.6564"></polygon>
</g>
<!-- fun_01&#45;&gt;fun_05 -->
<g id="edge13" class="edge">
<title>fun_01-&gt;fun_05</title>
<path fill="none" stroke="#000000" d="M844,-231.8314C844,-224.131 844,-214.9743 844,-206.4166"></path>
<polygon fill="#000000" stroke="#000000" points="847.5001,-206.4132 844,-196.4133 840.5001,-206.4133 847.5001,-206.4132"></polygon>
</g>
<!-- fun_03 -->
<g id="node10" class="node">
<title>fun_03</title>
<ellipse fill="none" stroke="#000000" cx="1194" cy="-106" rx="101.3279" ry="18"></ellipse>
<text text-anchor="middle" x="1194" y="-101.8" font-family="Times,serif" font-size="14.00" fill="#000000">2.3 Invertible functions</text>
</g>
<!-- fun_02&#45;&gt;fun_03 -->
<g id="edge9" class="edge">
<title>fun_02-&gt;fun_03</title>
<path fill="none" stroke="#000000" d="M1117.7074,-160.3868C1130.6686,-151.1472 1146.7284,-139.6986 1160.765,-129.6922"></path>
<polygon fill="#000000" stroke="#000000" points="1163.0865,-132.3357 1169.1976,-123.6809 1159.0232,-126.6357 1163.0865,-132.3357"></polygon>
</g>
<!-- fun_02&#45;&gt;fun_04 -->
<g id="edge11" class="edge">
<title>fun_02-&gt;fun_04</title>
<path fill="none" stroke="#000000" d="M1048.2977,-161.6621C1020.1278,-151.3665 983.4898,-137.976 953.2088,-126.9088"></path>
<polygon fill="#000000" stroke="#000000" points="954.2133,-123.5496 943.6195,-123.4041 951.8104,-130.1242 954.2133,-123.5496"></polygon>
</g>
<!-- fun_06 -->
<g id="node13" class="node">
<title>fun_06</title>
<ellipse fill="none" stroke="#000000" cx="1194" cy="-34" rx="77.0332" ry="18"></ellipse>
<text text-anchor="middle" x="1194" y="-29.8" font-family="Times,serif" font-size="14.00" fill="#000000">2.6 Equipollency</text>
</g>
<!-- fun_03&#45;&gt;fun_06 -->
<g id="edge14" class="edge">
<title>fun_03-&gt;fun_06</title>
<path fill="none" stroke="#000000" d="M1194,-87.8314C1194,-80.131 1194,-70.9743 1194,-62.4166"></path>
<polygon fill="#000000" stroke="#000000" points="1197.5001,-62.4132 1194,-52.4133 1190.5001,-62.4133 1197.5001,-62.4132"></polygon>
</g>
</g>
</svg>